<?xml version="1.0" encoding="utf-8"?>
<!-- Generator: Adobe Illustrator 19.0.0, SVG Export Plug-In . SVG Version: 6.00 Build 0)  -->
<svg version="1.1" id="Layer_1" xmlns="http://www.w3.org/2000/svg" xmlns:xlink="http://www.w3.org/1999/xlink" x="0px" y="0px"
	 viewBox="0 0 512 512" style="enable-background:new 0 0 512 512;" xml:space="preserve">
<g id="XMLID_1_">
	<path id="XMLID_5_" d="M449.9,282c0.9-8.3,0.9-16.7,0.9-26s-0.9-16.7-0.9-26l54.7-41.7c5.6-3.7,6.5-10.2,2.8-16.7l-51.9-88.1
		c-2.8-5.6-10.2-7.4-15.8-5.6l-64.9,26c-13-10.2-28.8-19.5-44.5-26l-9.3-67.7C320,5.6,314.4,0,307.9,0H203.1
		c-6.5,0-12.1,5.6-13,10.2l-10.2,67.7c-15.8,6.5-29.7,15.8-44.5,26l-64.9-26c-6.5-2.8-13,0-15.8,5.6L2.8,171.6
		c-2.8,4.6-0.9,13,2.8,16.7L61.2,230c0,9.3-0.9,16.7-0.9,26s0.9,16.7,0.9,26L6.5,323.7c-5.6,3.7-6.5,10.2-2.8,16.7l51.9,88.1
		c2.8,5.6,10.2,7.4,15.8,5.6l64.9-26c13,10.2,28.8,19.5,44.5,26l10.2,67.7c0.9,6.5,6.5,10.2,13,10.2h104.8c6.5,0,12.1-5.6,13-10.2
		l10.2-67.7c15.8-6.5,29.7-15.8,44.5-26l64.9,26c6.5,2.8,13,0,15.8-5.6l51.9-88.1c2.8-4.6,0.9-13-2.8-16.7L449.9,282z M255.1,345
		c-51,0-90.9-39.9-90.9-89s40.8-89,90.9-89s90.9,39.9,90.9,89S306.1,345,255.1,345z"/>
</g>
</svg>
