<?xml version="1.0"?>
<svg xmlns="http://www.w3.org/2000/svg" viewBox="0 0 50 50">
    <path style="line-height:normal;text-indent:0;text-align:start;text-decoration-line:none;text-decoration-style:solid;text-decoration-color:#000;text-transform:none;block-progression:tb;isolation:auto;mix-blend-mode:normal" d="M 7 2 L 7 48 L 43 48 L 43 47 L 43 15.414062 L 29.410156 2 L 7 2 z M 9 4 L 28 4 L 28 17 L 41 17 L 41 46 L 9 46 L 9 4 z M 30 5.3925781 L 39.732422 15 L 30 15 L 30 5.3925781 z M 33.5 21.333984 A 1.8890001 1.8329999 0 0 0 31.611328 23.167969 A 1.8890001 1.8329999 0 0 0 33.5 25 A 1.8890001 1.8329999 0 0 0 35.388672 23.167969 A 1.8890001 1.8329999 0 0 0 33.5 21.333984 z M 21.167969 24 A 1.0001 1.0001 0 0 0 20.324219 24.404297 L 12.863281 34.488281 A 1.0001 1.0001 0 0 0 13.667969 36.082031 L 28.425781 36.082031 A 1.0001 1.0001 0 0 0 28.494141 36.082031 A 1.0001 1.0001 0 0 0 28.505859 36.082031 L 35.013672 36 A 1.0001 1.0001 0 0 0 35.775391 34.369141 L 29.269531 26.384766 A 1.0001 1.0001 0 0 0 28.480469 26.017578 A 1.0001 1.0001 0 0 0 27.685547 26.429688 L 25.554688 29.365234 L 21.935547 24.410156 A 1.0001 1.0001 0 0 0 21.167969 24 z M 21.123047 26.689453 L 24.753906 31.660156 A 1.0001 1.0001 0 0 0 24.767578 31.677734 L 26.523438 34.082031 L 15.652344 34.082031 L 21.123047 26.689453 z M 28.539062 28.65625 L 32.917969 34.027344 L 28.998047 34.078125 L 26.794922 31.060547 L 28.539062 28.65625 z" font-weight="400" font-family="sans-serif" white-space="normal" overflow="visible"/>
</svg>
