<?xml version="1.0" encoding="UTF-8" standalone="no"?>
<svg
   xmlns:dc="http://purl.org/dc/elements/1.1/"
   xmlns:cc="http://creativecommons.org/ns#"
   xmlns:rdf="http://www.w3.org/1999/02/22-rdf-syntax-ns#"
   xmlns:svg="http://www.w3.org/2000/svg"
   xmlns="http://www.w3.org/2000/svg"
   xmlns:sodipodi="http://sodipodi.sourceforge.net/DTD/sodipodi-0.dtd"
   xmlns:inkscape="http://www.inkscape.org/namespaces/inkscape"
   version="1.1"
   id="Capa_1"
   x="0px"
   y="0px"
   viewBox="0 0 512 512"
   style="enable-background:new 0 0 512 512;"
   xml:space="preserve"
   sodipodi:docname="iImportar2.svg"
   inkscape:version="0.92.4 (5da689c313, 2019-01-14)"><metadata
   id="metadata46"><rdf:RDF><cc:Work
       rdf:about=""><dc:format>image/svg+xml</dc:format><dc:type
         rdf:resource="http://purl.org/dc/dcmitype/StillImage" /><dc:title></dc:title></cc:Work></rdf:RDF></metadata><defs
   id="defs44" /><sodipodi:namedview
   pagecolor="#ffffff"
   bordercolor="#666666"
   borderopacity="1"
   objecttolerance="10"
   gridtolerance="10"
   guidetolerance="10"
   inkscape:pageopacity="0"
   inkscape:pageshadow="2"
   inkscape:window-width="1600"
   inkscape:window-height="838"
   id="namedview42"
   showgrid="false"
   inkscape:zoom="0.92669658"
   inkscape:cx="201.8024"
   inkscape:cy="272.5332"
   inkscape:window-x="-8"
   inkscape:window-y="-8"
   inkscape:window-maximized="1"
   inkscape:current-layer="Capa_1" />
	<g
   id="g33"
   transform="rotate(-180,234.43799,247.72221)">
		<g
   id="g31">
			<path
   d="M 352,126.04962 352,416.002 H 64 v -288 h 96 v -64 H 32 c -17.664,0 -32,14.336 -32,32 v 352 c 0,17.696 14.336,32 32,32 h 352 c 17.696,0 32,-14.304 32,-32 l 0,-321.95238 z"
   id="path29"
   inkscape:connector-curvature="0"
   sodipodi:nodetypes="ccccccsssssscc" />
		</g>
	</g>
	<g
   id="g39"
   transform="matrix(0,-1,-1,0,406.6213,611.65062)">
		<g
   id="g37">
			<path
   d="m 505.6,131.202 -128,-96 c -4.8,-3.648 -11.328,-4.224 -16.736,-1.504 -5.44,2.72 -8.864,8.256 -8.864,14.304 v 48 h -48 c -97.056,0 -176,78.944 -176,176 0,7.424 5.12,13.888 12.32,15.584 1.216,0.288 2.464,0.416 3.68,0.416 5.952,0 11.552,-3.328 14.304,-8.832 l 3.776,-7.52 c 24.544,-49.12 73.888,-79.648 128.8,-79.648 H 352 v 48 c 0,6.048 3.424,11.584 8.832,14.304 5.408,2.72 11.936,2.144 16.768,-1.504 l 128,-96 c 4.032,-3.008 6.4,-7.776 6.4,-12.8 0,-5.024 -2.368,-9.792 -6.4,-12.8 z"
   id="path35"
   inkscape:connector-curvature="0" />
		</g>
	</g>
</svg>