<?xml version="1.0" encoding="UTF-8" standalone="no"?>
<svg
   xmlns:dc="http://purl.org/dc/elements/1.1/"
   xmlns:cc="http://creativecommons.org/ns#"
   xmlns:rdf="http://www.w3.org/1999/02/22-rdf-syntax-ns#"
   xmlns:svg="http://www.w3.org/2000/svg"
   xmlns="http://www.w3.org/2000/svg"
   xmlns:sodipodi="http://sodipodi.sourceforge.net/DTD/sodipodi-0.dtd"
   xmlns:inkscape="http://www.inkscape.org/namespaces/inkscape"
   id="svg2"
   viewBox="0 0 588.67 677.63"
   version="1.0"
   sodipodi:docname="tick.svg"
   inkscape:version="0.92.4 (5da689c313, 2019-01-14)">
  <defs
     id="defs26" />
  <sodipodi:namedview
     pagecolor="#ffffff"
     bordercolor="#666666"
     borderopacity="1"
     objecttolerance="10"
     gridtolerance="10"
     guidetolerance="10"
     inkscape:pageopacity="0"
     inkscape:pageshadow="2"
     inkscape:window-width="1600"
     inkscape:window-height="838"
     id="namedview24"
     showgrid="false"
     inkscape:zoom="0.99021589"
     inkscape:cx="293.43913"
     inkscape:cy="298.67574"
     inkscape:window-x="-8"
     inkscape:window-y="-8"
     inkscape:window-maximized="1"
     inkscape:current-layer="layer1" />
  <g
     id="layer1"
     transform="translate(-100.71 -203.07)">
    <path
       id="path3161"
       d="m 265.69,544.94 c 0.02,11.27 2.9,22.23 5.29,33.17 8.17,34.88 20.68,68.41 34.09,101.56 12.73,30.26 -1.25851,65.22161 19.72149,90.48161 C 298.89401,796.80392 152.31,912.57 207.01,833.79 c 11.93,-20.73 25.1,-40.69 37.88,-60.89 38.51,-62.08 78.47,-123.23 117.94,-184.7 61.13,-93.89 121.79,-188.23 170.95,-289.05 4.56,-10.66 9.13,-21.31 13.69,-31.97 l 141.9,-64.11 c -6.82,11.82 -13.64,23.65 -20.46,35.48 -57.62,97.4 -117.91,193.2 -174.39,291.28 -31.32,56.62 -62.01,113.61 -90.06,171.94 -9.87,19.45 -20.6,38.36 -31.07,57.47 -27.23,62.99 -141.39,169.08 -179.22,97.63 -10.72,-32.02 -21.55,-64.09 -36.06,-94.65 -14.74,-32.38 -30.38,-64.33 -45.42,-96.57 -5.01,-10.73 -8.52,-21.88 -11.98,-33.19 z"
       inkscape:connector-curvature="0"
       style="opacity:0.85987004;fill:#44aa00"
       sodipodi:nodetypes="ccccccccccccccccccc" />
  </g>
</svg>
